<?xml version="1.0" encoding="utf-8"?>
<!-- Generator: Adobe Illustrator 26.5.0, SVG Export Plug-In . SVG Version: 6.00 Build 0)  -->
<svg version="1.0" xmlns="http://www.w3.org/2000/svg" xmlns:xlink="http://www.w3.org/1999/xlink" x="0px" y="0px"
	 viewBox="0 0 239.04 71.77" style="enable-background:new 0 0 239.04 71.77;" xml:space="preserve">
<style type="text/css">
	.st0{fill:#FFFFFF;}
</style>
<g id="icon">
	<g>
		<path class="st0" d="M86.74,26.86c0.35-1.23,1.62-1.95,2.86-1.6c1.23,0.35,1.95,1.62,1.6,2.86l-4.44,15.8
			c-0.29,1.02-1.22,1.69-2.23,1.69c-0.21,0-0.42-0.03-0.63-0.09c-1.23-0.35-1.95-1.62-1.6-2.86L86.74,26.86z"/>
		<path class="st0" d="M75.55,16.9c0.35-1.23,1.62-1.95,2.86-1.6c1.23,0.35,1.95,1.62,1.6,2.86l-8.23,29.31
			c-0.29,1.02-1.22,1.69-2.23,1.69c-0.21,0-0.42-0.03-0.63-0.09c-1.23-0.35-1.95-1.62-1.6-2.86L75.55,16.9z"/>
		<path class="st0" d="M99.16,32.38c0.35-1.23,1.62-1.95,2.86-1.6c1.23,0.35,1.95,1.62,1.6,2.86l-2.34,8.4
			c-0.29,1.02-1.22,1.69-2.23,1.69c-0.21,0-0.42-0.03-0.63-0.09c-1.23-0.35-1.95-1.62-1.6-2.86L99.16,32.38z"/>
		<path class="st0" d="M6.1,15.74c0.35-1.23,1.47-2.03,2.7-1.68c1.23,0.35,1.95,1.62,1.6,2.86L7.37,27.72
			c-0.29,1.02-1.22,1.69-2.23,1.69c-0.21,0-0.42-0.03-0.63-0.09c-1.23-0.35-1.95-1.62-1.6-2.86L6.1,15.74z"/>
		<path class="st0" d="M47.5,34.56c-0.29,1.02-1.22,1.69-2.23,1.69c-0.21,0-0.42-0.03-0.63-0.09c-1.23-0.35-1.95-1.62-1.6-2.86
			l7.49-26.96c0.35-1.23,1.62-1.95,2.86-1.6c1.23,0.35,1.95,1.62,1.6,2.86L47.5,34.56z"/>
		<path class="st0" d="M34.5,63.47c-0.35,1.23,0.37,2.51,1.6,2.86c0.21,0.06,0.42,0.09,0.63,0.09c1.01,0,1.94-0.67,2.23-1.69
			l4.47-15.94c2.28-0.47,4.01-2.5,4.01-4.92c0-2.77-2.26-5.03-5.03-5.03c-2.77,0-5.03,2.26-5.03,5.03c0,1.44,0.62,2.75,1.59,3.66
			L34.5,63.47z M42.41,47.15c-1.23,0-2.29-0.67-2.86-1.67c-0.27-0.48-0.43-1.03-0.43-1.62c0-1.82,1.48-3.29,3.29-3.29
			c1.82,0,3.29,1.48,3.29,3.29c0,1.23-0.68,2.31-1.69,2.87C43.53,47,42.99,47.15,42.41,47.15z"/>
		<path class="st0" d="M56.79,33.91c0.35-1.23,1.62-1.95,2.86-1.6c1.23,0.35,1.95,1.62,1.6,2.86l-5.37,19.13
			c-0.29,1.02-1.22,1.69-2.23,1.69c-0.21,0-0.42-0.03-0.63-0.09c-1.23-0.35-1.95-1.62-1.6-2.86L56.79,33.91z"/>
		<path class="st0" d="M36.56,6.27c0.35-1.23,1.62-1.95,2.86-1.6c1.23,0.35,1.95,1.62,1.6,2.86L29.05,50.18
			c-0.29,1.02-1.22,1.69-2.23,1.69c-0.21,0-0.42-0.03-0.63-0.09c-1.23-0.35-1.95-1.62-1.6-2.86L36.56,6.27z"/>
		<path class="st0" d="M15.78,39.04c0.21,0.06,0.42,0.09,0.63,0.09c1.01,0,1.94-0.67,2.23-1.69l5.38-19.16
			c2.28-0.47,4.01-2.5,4.01-4.92c0-2.77-2.26-5.03-5.03-5.03s-5.03,2.26-5.03,5.03c0,1.44,0.62,2.75,1.59,3.66l-5.38,19.17
			C13.83,37.42,14.55,38.69,15.78,39.04z M22.99,16.64c-1.23,0-2.29-0.67-2.86-1.67c-0.27-0.48-0.43-1.03-0.43-1.62
			c0-1.82,1.48-3.29,3.29-3.29c1.82,0,3.29,1.48,3.29,3.29c0,1.23-0.68,2.31-1.69,2.87C24.12,16.49,23.57,16.64,22.99,16.64z"/>
		<path class="st0" d="M61.74,29.85c2.77,0,5.03-2.26,5.03-5.03c0-1.44-0.62-2.75-1.59-3.66l2.97-10.59
			c0.35-1.23-0.37-2.51-1.6-2.86c-1.23-0.35-2.51,0.37-2.86,1.6L60.72,19.9c-2.28,0.47-4.01,2.5-4.01,4.92
			C56.71,27.59,58.97,29.85,61.74,29.85z M58.45,24.82c0-1.23,0.68-2.31,1.69-2.87c0.47-0.26,1.02-0.42,1.6-0.42
			c1.23,0,2.29,0.67,2.86,1.67c0.27,0.48,0.43,1.03,0.43,1.62c0,1.82-1.48,3.29-3.29,3.29C59.93,28.11,58.45,26.63,58.45,24.82z"/>
	</g>
</g>
<g id="abr">
	<g>
		<path class="st0" d="M156.72,62.43c0.31,0.71,0.32,1.43,0.03,2.18c-0.27,0.73-0.77,1.25-1.49,1.56c-0.37,0.17-0.76,0.25-1.15,0.25
			c-1.22,0-2.09-0.57-2.58-1.71l-4.95-11.3h-19.02l-4.95,11.3c-0.31,0.73-0.83,1.22-1.56,1.49c-0.73,0.29-1.45,0.28-2.18-0.03
			c-0.73-0.31-1.22-0.83-1.49-1.56c-0.29-0.75-0.28-1.47,0.03-2.18l17.06-38.98c0.5-1.14,1.36-1.71,2.58-1.71
			c1.25,0,2.12,0.57,2.62,1.71L156.72,62.43z M144.08,47.73l-7.04-16.07l-7.01,16.07H144.08z"/>
		<path class="st0" d="M165.81,66.41c-0.79,0-1.45-0.28-1.99-0.84c-0.56-0.54-0.84-1.2-0.84-1.99V24.56c0-0.77,0.28-1.43,0.84-1.99
			c0.54-0.56,1.2-0.84,1.99-0.84h15.44c3.47,0,6.43,1.23,8.91,3.7c2.45,2.45,3.67,5.41,3.67,8.87c0,3.26-1.09,6.08-3.27,8.47
			c1.97,1.1,3.55,2.62,4.73,4.55c1.2,1.99,1.81,4.16,1.81,6.51c0,3.47-1.24,6.43-3.71,8.87c-2.45,2.47-5.42,3.71-8.9,3.71H165.81z
			 M168.68,41.22h12.58c1.91,0,3.54-0.67,4.89-2.02c1.35-1.35,2.02-2.98,2.02-4.89c0-1.89-0.67-3.51-2.02-4.86
			c-1.35-1.35-2.98-2.02-4.89-2.02h-12.58V41.22z M168.68,60.71h15.82c1.91,0,3.54-0.67,4.89-2.02c1.35-1.35,2.02-2.97,2.02-4.86
			c0-1.91-0.67-3.54-2.02-4.89c-1.35-1.35-2.98-2.02-4.89-2.02h-15.82V60.71z"/>
		<path class="st0" d="M206.17,66.41c-0.79,0-1.45-0.28-1.99-0.84c-0.56-0.54-0.84-1.2-0.84-1.99V24.56c0-0.77,0.28-1.43,0.84-1.99
			c0.54-0.56,1.2-0.84,1.99-0.84h13.49c4.03,0,14.57,0,14.57,12.69c0,10.57-7.08,11.18-10.71,12.16l9.93,15.07
			c0.53,0.78,0.8,1.26,0.78,2.02c-0.04,0.79-0.35,1.45-0.93,1.99c-0.54,0.5-1.18,0.75-1.93,0.75c-0.83,0-1.52-0.3-2.09-0.9
			l-13.01-18.4h-7.23v16.47c0,0.79-0.28,1.45-0.84,1.99C207.63,66.13,206.95,66.41,206.17,66.41z M228.53,34.42
			c0-7.4-6.42-6.99-8.87-6.99h-10.62v13.98h10.62C222.1,41.41,228.53,41.41,228.53,34.42z"/>
	</g>
</g>
<g id="guides">
</g>
</svg>
