<?xml version="1.0" encoding="UTF-8"?>
<svg width="81px" height="68px" viewBox="0 0 81 68" version="1.1" xmlns="http://www.w3.org/2000/svg" xmlns:xlink="http://www.w3.org/1999/xlink">
    <!-- Generator: Sketch 54.1 (76490) - https://sketchapp.com -->
    <title>icon-model</title>
    <desc>Created with Sketch.</desc>
    <g id="Nengo-Design" stroke="none" stroke-width="1" fill="none" fill-rule="evenodd">
        <g id="Nengo-Home-v2" transform="translate(-231.000000, -736.000000)">
            <g id="001-modeling" transform="translate(231.000000, 736.000000)">
                <path d="M5,51 L81,51 L81,57 C81,59.209139 79.209139,61 77,61 L9,61 C6.790861,61 5,59.209139 5,57 L5,51 Z" id="Rectangle" fill="#5CB95D"></path>
                <rect id="Rectangle" fill="#5CB95D" x="9" y="17" width="11" height="32"></rect>
                <rect id="Rectangle" fill="#5CB95D" x="63" y="17" width="11" height="12"></rect>
                <rect id="Rectangle-Copy-4" fill="#5CB95D" x="63" y="33" width="11" height="12"></rect>
                <polygon id="Rectangle-Copy-4" fill="#5CB95D" points="28 23.9231929 42.0740741 16 56 23.9231929 56 38.3285764 42.0740741 46 28 38.3285764"></polygon>
                <path d="M72.6066699,5 L34.1156154,5 C33.4997027,5 33,5.49353631 33,6.1018485 C33,6.71073453 33.4997027,7.20369699 34.1156154,7.20369699 L72.6072509,7.20369699 C73.2475677,7.20369699 73.7687693,7.7184668 73.7687693,8.35145584 L73.7687693,41.8981515 C73.7687693,42.5064637 74.268472,43 74.8843846,43 C75.5008783,43 76,42.5064637 76,41.8981515 L76,8.35145584 C76,6.50356409 74.4782309,5 72.6066699,5 Z" id="Path" fill="#000000" fill-rule="nonzero"></path>
                <path d="M74.8867188,45.720587 C74.2715149,45.720587 73.7734375,46.2150805 73.7734375,46.8258576 L73.7734375,49.0110697 L2.2265625,49.0110697 L2.2265625,8.36186477 C2.2265625,7.72690979 2.74667355,7.21054122 3.38565067,7.21054122 L19.7816162,7.21054122 C20.3962402,7.21054122 20.8948975,6.71604772 20.8948975,6.10527061 C20.8948975,5.49506913 20.3962402,5 19.7816162,5 L3.38565067,5 C1.51858524,5 0,6.50823385 0,8.36186477 L0,55.8234512 C0,57.2626056 1.17938225,58.4335016 2.62896736,58.4335016 L29.6086426,58.4335016 L29.6086426,63.7894588 L25.0117188,63.7894588 C24.3970947,63.7894588 23.8984375,64.2845279 23.8984375,64.8947294 C23.8984375,65.5055065 24.3970947,66 25.0117188,66 L50.9882813,66 C51.6034851,66 52.1015625,65.5055065 52.1015625,64.8947294 C52.1015625,64.2845279 51.6034851,63.7894588 50.9882813,63.7894588 L46.3913574,63.7894588 L46.3913574,58.4335016 L73.3710326,58.4335016 C74.8206178,58.4335016 76,57.2626056 76,55.8234512 L76,46.8258576 C76,46.2150805 75.5019226,45.720587 74.8867188,45.720587 Z M44.1647949,63.7894588 L31.8352051,63.7894588 L31.8352051,58.4335016 L44.1647949,58.4335016 L44.1647949,63.7894588 Z M73.3710326,56.2229604 L2.62896736,56.2229604 C2.40689091,56.2229604 2.2265625,56.0439297 2.2265625,55.8234512 L2.2265625,51.2216109 L73.7734375,51.2216109 L73.7734375,55.8234512 C73.7734375,56.0439297 73.5931091,56.2229604 73.3710326,56.2229604 Z" id="Shape" fill="#000000" fill-rule="nonzero"></path>
                <path d="M24.1209341,7 L28.8790659,7 C29.4979149,7 30,6.55260413 30,6 C30,5.44791667 29.4979149,5 28.8790659,5 L24.1209341,5 C23.5020851,5 23,5.44791667 23,6 C23,6.55260413 23.5020851,7 24.1209341,7 Z" id="Path" fill="#000000" fill-rule="nonzero"></path>
                <path d="M6.1238825,13 C5.5034057,13 5,13.5016515 5,14.1212702 L5,43.8787298 C5,44.4977644 5.5034057,45 6.1238825,45 L14.8761175,45 C15.4965943,45 16,44.4977644 16,43.8787298 L16,14.1212702 C16,13.5016515 15.4965943,13 14.8761175,13 L6.1238825,13 Z M13.752235,15.2425404 L13.752235,16.5962405 L7.24776501,16.5962405 L7.24776501,15.2425404 L13.752235,15.2425404 Z M7.24776501,42.7574596 L7.24776501,18.8387809 L13.752235,18.8387809 L13.752235,42.7574596 L7.24776501,42.7574596 Z" id="Shape" fill="#000000" fill-rule="nonzero"></path>
                <path d="M61.1238825,25 L69.8761175,25 C70.4971796,25 71,24.5053268 71,23.8943277 L71,14.1056723 C71,13.4946731 70.4971796,13 69.8761175,13 L61.1238825,13 C60.5034057,13 60,13.4946731 60,14.1056723 L60,23.8943277 C60,24.5053268 60.5034057,25 61.1238825,25 Z M62.247765,22.7886553 L62.247765,18.7569824 L68.752235,18.7569824 L68.752235,22.7886553 L62.247765,22.7886553 Z M68.752235,15.2113447 L68.752235,16.5462136 L62.247765,16.5462136 L62.247765,15.2113447 L68.752235,15.2113447 Z" id="Shape" fill="#000000" fill-rule="nonzero"></path>
                <path d="M60,39.8943277 C60,40.5053268 60.5034057,41 61.1238825,41 L69.8761175,41 C70.4971796,41 71,40.5053268 71,39.8943277 L71,30.1056723 C71,29.4946732 70.4971796,29 69.8761175,29 L61.1238825,29 C60.5034057,29 60,29.4946732 60,30.1056723 L60,39.8943277 Z M62.247765,38.7886554 L62.247765,34.7569825 L68.752235,34.7569825 L68.752235,38.7886554 L62.247765,38.7886554 Z M68.752235,31.2113446 L68.752235,32.5456379 L62.247765,32.5456379 L62.247765,31.2113446 L68.752235,31.2113446 Z" id="Shape" fill="#000000" fill-rule="nonzero"></path>
                <path d="M21,34.525614 C21,36.322071 22.4807429,37.783911 24.2997054,37.783911 C25.1281672,37.783911 25.8853317,37.4807189 26.4651371,36.9808301 L34.2406571,41.2354128 C34.2147309,41.4001026 34.2005893,41.569448 34.2005893,41.7411211 C34.2005893,43.53816 35.6807428,45 37.5002947,45 C39.3192573,45 40.7994109,43.53816 40.7994109,41.7411211 C40.7994109,41.569448 40.7858585,41.4001026 40.7599322,41.2354128 L48.5348631,36.9808301 C49.1146684,37.4801368 49.8724221,37.783911 50.7002946,37.783911 C52.5198464,37.783911 54,36.322071 54,34.5250321 C54,33.1208043 53.0955273,31.9208386 51.8316222,31.4640137 L51.8316222,24.5429696 C53.0955273,24.0855626 54,22.8861788 54,21.4813692 C54,19.6843302 52.5198464,18.2224903 50.7002946,18.2224903 C49.8741899,18.2224903 49.1187931,18.5245185 48.5395769,19.0214977 L40.759343,14.764587 C40.7858585,14.5998972 40.7994109,14.4311339 40.7994109,14.2588789 C40.7994109,12.46184 39.3192573,11 37.4997055,11 C35.6807428,11 34.2005893,12.46184 34.2005893,14.2588789 C34.2005893,14.4305519 34.2141417,14.5998972 34.2406571,14.764587 L26.4604232,19.0214977 C25.881207,18.5245185 25.1258103,18.2224903 24.2997054,18.2224903 C22.4801536,18.2224903 21,19.6843302 21,21.4813692 C21,22.8855969 21.9044729,24.0855626 23.1683778,24.5423876 L23.1683778,31.4640137 C21.9044729,31.9208386 21,33.1208043 21,34.525614 Z M37.5002947,17.5177578 C38.3263994,17.5177578 39.0817963,17.2157295 39.6610125,16.7181685 L47.4412464,20.975661 C47.4153202,21.1403509 47.4011786,21.3091141 47.4011786,21.4813692 C47.4011786,21.6536242 47.4153202,21.8229696 47.4412464,21.9876594 L39.6610125,26.2445698 C39.0817963,25.7475909 38.3263994,25.4455626 37.5002947,25.4455626 C36.6741899,25.4455626 35.918793,25.7475909 35.3395768,26.2445698 L27.5593429,21.9876594 C27.5858585,21.8229696 27.5994108,21.6536242 27.5994108,21.4813692 C27.5994108,21.3091141 27.5852692,21.1403509 27.5593429,20.975661 L35.3395768,16.7187504 C35.918793,17.2157295 36.6741899,17.5177578 37.5002947,17.5177578 L37.5002947,17.5177578 Z M47.4011786,34.525614 C47.4011786,34.6955412 47.4147308,34.8625588 47.4400679,35.0255028 L39.6610125,39.2818313 C39.3605035,39.0234488 39.0128561,38.8174412 38.6316222,38.6801027 L38.6316222,31.7654599 C39.8955272,31.3086349 40.8000001,30.1086691 40.8000001,28.7038596 C40.8000001,28.5316046 40.7858585,28.3628411 40.7599322,28.1981515 L48.5401661,23.9412408 C48.8406751,24.1990415 49.1883225,24.4050491 49.5695564,24.5429696 L49.5695564,31.4640137 C48.3056513,31.9208386 47.4011786,33.1208043 47.4011786,34.525614 Z M38.5373449,28.7038596 C38.5373449,29.268926 38.0718507,29.7280787 37.5002947,29.7280787 C36.9287386,29.7280787 36.4632444,29.268926 36.4632444,28.7038596 C36.4632444,28.1393751 36.9287386,27.6802224 37.5002947,27.6802224 C38.0718507,27.6802224 38.5373449,28.1393751 38.5373449,28.7038596 Z M26.4604232,23.9412408 L34.2406571,28.1981515 C34.2147309,28.3634232 34.2005893,28.5321865 34.2005893,28.7044415 C34.2005893,30.1086691 35.1050621,31.3086349 36.3689671,31.7654599 L36.3689671,38.6801027 C35.9877333,38.8180231 35.6400858,39.0240307 35.3395768,39.2818313 L27.5605215,35.0255028 C27.5858585,34.8625588 27.5994108,34.6955412 27.5994108,34.525614 C27.5994108,33.1208043 26.6949381,31.9208386 25.4310329,31.4640137 L25.4310329,24.5429696 C25.8122668,24.4050491 26.1599143,24.1990415 26.4604232,23.9412408 Z M24.2997054,35.5492512 C23.7281494,35.5492512 23.2626551,35.0900983 23.2626551,34.525614 C23.2626551,33.9605476 23.7281494,33.5013949 24.2997054,33.5013949 C24.8718508,33.5013949 25.3367557,33.9605476 25.3367557,34.525614 C25.3367557,35.0900983 24.8718508,35.5492512 24.2997054,35.5492512 Z M37.5002947,42.7653402 C36.9287386,42.7653402 36.4632444,42.3056054 36.4632444,41.7411211 C36.4632444,41.1766366 36.9287386,40.716902 37.5002947,40.716902 C38.0718507,40.716902 38.5373449,41.1766366 38.5373449,41.7411211 C38.5373449,42.3056054 38.0718507,42.7653402 37.5002947,42.7653402 Z M50.700884,35.5492512 C50.1293278,35.5492512 49.6638337,35.0900983 49.6638337,34.525614 C49.6638337,33.9605476 50.1293278,33.5013949 50.700884,33.5013949 C51.27244,33.5013949 51.7379342,33.9605476 51.7379342,34.525614 C51.7379342,35.0900983 51.27244,35.5492512 50.700884,35.5492512 Z M50.700884,20.4571501 C51.27244,20.4571501 51.7379342,20.9168849 51.7379342,21.4813692 C51.7379342,22.0458536 51.27244,22.5055883 50.700884,22.5055883 C50.1293278,22.5055883 49.6638337,22.0458536 49.6638337,21.4813692 C49.6638337,20.9168849 50.1293278,20.4571501 50.700884,20.4571501 Z M37.5002947,13.2346598 C38.0718507,13.2346598 38.5373449,13.6943945 38.5373449,14.2588789 C38.5373449,14.8233632 38.0718507,15.283098 37.5002947,15.283098 C36.9287386,15.283098 36.4632444,14.8233632 36.4632444,14.2588789 C36.4632444,13.6943945 36.9287386,13.2346598 37.5002947,13.2346598 L37.5002947,13.2346598 Z M24.2997054,20.4571501 C24.8718508,20.4571501 25.3367557,20.9168849 25.3367557,21.4813692 C25.3367557,22.0458536 24.8718508,22.5055883 24.2997054,22.5055883 C23.7281494,22.5055883 23.2626551,22.0458536 23.2626551,21.4813692 C23.2626551,20.9168849 23.7281494,20.4571501 24.2997054,20.4571501 Z" id="Shape" fill="#000000" fill-rule="nonzero"></path>
            </g>
        </g>
    </g>
</svg>