<?xml version="1.0" encoding="UTF-8"?>
<svg width="54px" height="68px" viewBox="0 0 54 68" version="1.1" xmlns="http://www.w3.org/2000/svg" xmlns:xlink="http://www.w3.org/1999/xlink">
    <!-- Generator: Sketch 54.1 (76490) - https://sketchapp.com -->
    <title>icon-bulb</title>
    <desc>Created with Sketch.</desc>
    <g id="Nengo-Design" stroke="none" stroke-width="1" fill="none" fill-rule="evenodd">
        <g id="Nengo-Home-v2" transform="translate(-891.000000, -736.000000)">
            <g id="002-innovation" transform="translate(891.000000, 736.000000)">
                <g id="Group-11" transform="translate(7.000000, 6.000000)" fill="#EE6AAC" stroke="#EE6AAC" stroke-width="2">
                    <path d="M36.4274392,8.58205421 L36.4285714,8.58205357 C38.7559455,8.58205357 40.6428571,10.4689653 40.6428571,12.7963393 C40.6428571,15.1237133 38.7559455,17.010625 36.4285714,17.010625 C34.1011974,17.010625 32.2142857,15.1237133 32.2142861,12.7954335 C32.2163927,10.4697279 34.1015958,8.58468764 36.4274392,8.58205421 Z" id="Path"></path>
                    <path d="M7.25985571,42.7417437 C5.92884234,40.8439323 5.40039216,40.0553812 4.86416914,39.1061847 C1.30082396,32.7991281 -1,25.1784614 -1,19.6194643 C-1,8.41352241 8.26018298,-0.480348942 20.314149,-0.999075336 L21.3571429,-1.04395919 L21.3571429,8.41293925 L20.4317927,8.4822098 C20.1219687,8.50540285 19.8589557,8.53024762 19.5927331,8.56286466 C19.5626434,8.56652398 19.5381624,8.58897084 19.531991,8.61823612 L19.0749767,10.7915846 L18.4579933,10.9381489 C18.2085467,10.9974049 17.9594052,11.0644647 17.7102835,11.1394007 L17.1018921,11.3224053 L16.6777359,10.8494124 L15.6088808,9.65748893 C15.588822,9.63505015 15.5568499,9.62793715 15.5324338,9.6383568 C14.4078406,10.1232858 13.3461827,10.7431836 12.367674,11.4867298 C12.343371,11.5050482 12.3333681,11.5369581 12.3429017,11.5660148 L13.0330748,13.6688624 L12.5696477,14.1047045 C12.386225,14.2772093 12.2030279,14.4604064 12.020514,14.6534154 L11.5845713,15.1144264 L10.9817841,14.9163739 L9.48900315,14.4258947 C9.45756681,14.4157124 9.42309951,14.4265027 9.40334096,14.452456 C8.66127034,15.427939 8.04097805,16.4899125 7.55763589,17.6115584 C7.54573265,17.6394743 7.55293318,17.6718374 7.57597981,17.6924649 L9.24151968,19.1846163 L9.05717087,19.7940772 C8.98281487,20.0398996 8.91643977,20.2857356 8.85797156,20.5318719 L8.70975324,21.1558334 L8.08084244,21.2814032 L6.41445114,21.6141189 C6.38126953,21.6207375 6.35727679,21.6499936 6.35727679,21.6839732 L6.35727679,25.3375446 C6.35727679,25.3715173 6.38125502,25.4007526 6.41477101,25.4074361 L8.70932199,25.8655716 L8.85791636,26.4888512 C8.91672872,26.7355398 8.98326682,26.9820106 9.0575197,27.2281521 L9.24129873,27.8373626 L8.76728355,28.261888 L7.57611087,29.3286954 C7.55301552,29.3494088 7.54566832,29.3824375 7.5558106,29.4063269 C8.04103584,30.5319439 8.66133799,31.5940199 9.40345115,32.5695592 C9.42303685,32.5953388 9.45693986,32.6059507 9.48473048,32.5969297 L11.5833721,31.9073975 L12.0192846,32.367087 C12.2068843,32.5649194 12.3891875,32.7473467 12.5693799,32.9168133 L13.033024,33.3528596 L12.8342872,33.9575132 L12.342721,35.4530945 C12.3330761,35.4825087 12.3431623,35.5147286 12.3705661,35.5354443 C13.3454683,36.2773897 14.4074179,36.8978997 15.5274859,37.3809295 C15.5562584,37.3931432 15.5896779,37.3857085 15.6101913,37.3628644 L17.1025047,35.6987281 L17.7112558,35.8823293 C17.9592352,35.9571208 18.2080834,36.0240932 18.4576937,36.0832344 L19.0752912,36.2295641 L19.2057804,36.8507014 L19.5318202,38.4026724 C19.5380773,38.4324982 19.5626037,38.4550149 19.5931963,38.4587424 C19.8589446,38.4912596 20.1221561,38.516109 20.4320606,38.5393081 L21.3574107,38.6085786 L21.3574107,52.4055357 L11.8941588,52.4055357 L11.7744872,51.5429564 C11.4416073,49.143595 10.2618854,47.0220493 7.25986246,42.7417533 Z" id="Path"></path>
                    <path d="M32.6069762,58.9311165 C32.5927437,60.0627514 31.671383,60.975936 30.5357143,60.9769643 L12.3045383,60.9768216 C11.1497906,60.9573149 10.2294305,60.0053633 10.2490258,58.8459996 C10.2497641,58.8165738 10.2497641,58.8165738 10.2500004,58.8292281 C10.2510357,57.6862224 11.177517,56.7597411 12.3214286,56.7587054 L30.5526045,56.758848 C31.7073523,56.7783547 32.6277124,57.7303064 32.6082904,58.8789217 C32.6077931,58.9066645 32.6076392,58.9152518 32.6069762,58.9311165 Z" id="Path"></path>
                    <path d="M30.2253697,52.5482589 C30.3120296,52.5426745 30.3978134,52.542779 30.4823444,52.5482589 L31.2615625,52.5482589 L31.2615625,52.7652143 C31.8411944,53.0654657 32.2604627,53.64554 32.3247139,54.3434714 C32.3314671,54.4164066 32.334172,54.4896396 32.3329907,54.5453254 C32.3319553,55.6883312 31.4054741,56.6148125 30.2615625,56.6158482 L12.5786901,56.6157056 C11.4239162,56.5961984 10.5035847,55.6443558 10.5231776,54.4848835 C10.5239159,54.4554577 10.5239159,54.4554577 10.5250698,54.4261786 C10.5716353,53.3401953 11.4898813,52.4976627 12.5773096,52.5445639 C12.6083677,52.5462874 12.623989,52.5471542 12.6389446,52.5482589 L30.2253697,52.5482589 Z" id="Path"></path>
                    <path d="M29.9988678,35.3677685 L30,35.3677679 C32.327374,35.3677679 34.2142857,37.2546795 34.2142857,39.5820536 C34.2142857,41.9094276 32.327374,43.7963393 30,43.7963393 C27.672626,43.7963393 25.7857143,41.9094276 25.7857147,39.5811478 C25.7878213,37.2554422 27.6730244,35.3704019 29.9988678,35.3677685 Z" id="Path"></path>
                    <path d="M27.8560106,3.22491136 L27.8571429,3.22491071 C30.1845169,3.22491071 32.0714286,5.11182239 32.0714286,7.43919643 C32.0714286,9.76657046 30.1845169,11.6534821 27.8571429,11.6534821 C25.5297688,11.6534821 23.6428571,9.76657046 23.6428576,7.43829063 C23.6449642,5.11258506 25.5301672,3.22754478 27.8560106,3.22491136 Z" id="Path"></path>
                    <path d="M31,29.8677679 L21.5,29.8677679 L21.5,17.1534821 L31,17.1534821 L31,29.8677679 Z" id="Path"></path>
                    <path d="M41.7866201,30.939196 L41.7857143,30.9391964 C39.4583403,30.9391964 37.5714286,29.0522847 37.5714286,26.7249107 C37.5714286,24.3975367 39.4583403,22.510625 41.7857143,22.510625 C44.1130883,22.510625 46,24.3975367 45.9999996,26.7258163 C45.9978931,29.0519615 44.1126026,30.9370892 41.7866201,30.939196 Z" id="Path"></path>
                </g>
                <path d="M47.809584,28.1171042 C47.3451379,26.8227917 46.110115,25.9595104 44.7264583,25.9619479 C43.3441653,25.9661458 42.1140514,26.8337604 41.654787,28.1286146 L34.9084553,28.1286146 L34.9084553,23.7952813 L39.2720122,23.7952813 C39.8743194,23.7954167 40.3627651,23.310625 40.3629014,22.7124896 L40.3629014,18.1790104 C42.0670068,17.5807396 42.9601723,15.7239063 42.3577287,14.0314688 C41.7552852,12.3391667 39.885501,11.4521875 38.1812593,12.0504583 C36.4770176,12.6487292 35.5839884,14.5055625 36.186432,16.198 C36.5158806,17.1235729 37.2490945,17.8517083 38.181123,18.1790104 L38.181123,21.62875 L34.9084553,21.62875 L34.9084553,19.4620833 C34.9085917,18.8639479 34.4204187,18.3788854 33.8181115,18.37875 L31.6357876,18.37875 L31.6357876,12.7622083 C33.3398929,12.1639375 34.2330585,10.3071042 33.6306149,8.61466667 C33.0281713,6.92236458 31.1583872,6.03538542 29.4541455,6.63365625 C27.7500402,7.23192708 26.8568746,9.08876042 27.4593182,10.7811979 C27.7887667,11.7067708 28.5219807,12.4349063 29.4540092,12.7622083 L29.4540092,18.3786146 L25.0904522,18.3786146 L25.0904522,1.08333333 C25.0905886,0.485197917 24.6024157,0.000135416667 24.0001085,0 C10.5419444,0 0,9.67592708 0,22.0274167 C0,27.89475 2.34527548,35.6631979 6.12138854,42.2996979 C6.79951256,43.4909583 7.68422372,44.7435625 8.62061576,46.0702396 C10.6007161,48.8732292 12.8043123,52.0253229 13.0438989,54.7691354 C12.2052778,55.3577917 11.714514,56.3207396 11.7334682,57.3404271 C11.7366045,58.0728958 11.9913271,58.7824792 12.4555005,59.3517708 C11.8098304,59.9844375 11.4487461,60.8492083 11.4543369,61.75 C11.4562459,63.5441354 12.9203557,64.9981042 14.7270046,65 L33.2721215,65 C35.0910429,64.9887604 36.5565162,63.5154271 36.5451982,61.7091042 C36.5450619,61.6973229 36.5449255,61.6855417 36.5447891,61.6737604 C36.5441073,60.7926042 36.181523,59.9499062 35.540762,59.3402604 C36.0109352,58.7490312 36.2663397,58.0175104 36.2656579,57.2641875 C36.2623852,55.5483229 34.8590926,54.1600312 33.1312604,54.1632812 C33.0851703,54.1634167 33.0390802,54.1645 32.9929902,54.1665312 L25.0904522,54.1665312 L25.0904522,33.5451458 L27.2722307,33.5451458 L27.2722307,36.7951458 C27.2720943,37.3932813 27.7602673,37.8783438 28.3625745,37.8784792 L31.6357876,37.8784792 L31.6357876,39.1614167 C29.9316823,39.7596875 29.0386531,41.6166563 29.641233,43.3088229 C30.243813,45.0009896 32.1135971,45.8879688 33.8175661,45.2895625 C35.5216714,44.6912917 36.4147006,42.8343229 35.8121207,41.1421563 C35.4826721,40.2165833 34.7494582,39.4885833 33.8175661,39.1614167 L33.8175661,36.7951458 C33.8177024,36.1970104 33.3295295,35.7119479 32.7272223,35.7118125 L29.4540092,35.7118125 L29.4540092,33.5451458 L33.8175661,33.5451458 C34.4198733,33.5452813 34.9083189,33.0604896 34.9084553,32.4623542 L34.9084553,30.2951458 L41.6549234,30.2951458 C42.2606396,31.9829792 44.1293329,32.8635938 45.8289383,32.2620729 C47.5284073,31.6606875 48.4151639,29.8049375 47.809584,28.1171042 Z M39.2720122,14.0451458 C39.8744558,14.0451458 40.3629014,14.5302083 40.3629014,15.1284792 C40.3629014,15.72675 39.8744558,16.2118125 39.2720122,16.2118125 C38.6695686,16.2118125 38.181123,15.72675 38.181123,15.1284792 C38.1816684,14.5304792 38.6698414,14.0458229 39.2720122,14.0451458 Z M10.4070832,44.8260312 C9.50150881,43.5437708 8.64666074,42.3335521 8.02076305,41.2332917 C4.47387308,34.9988437 2.18177846,27.4599271 2.18177846,22.0274167 C2.18177846,11.2237396 11.2002961,2.69032292 22.9086738,2.18995833 L22.9086738,9.758125 C22.6190427,9.77965625 22.3235481,9.80579167 22.0074629,9.84425 C21.5443804,9.90017708 21.1684327,10.2425104 21.0721618,10.6958854 L20.7397133,12.2659062 C20.4659001,12.3305 20.1929051,12.4034896 19.9204555,12.484875 L18.833248,11.2808854 C18.5217991,10.9348958 18.02299,10.8246667 17.5931797,11.0069375 C16.3722019,11.5297812 15.2198138,12.1980625 14.1612422,12.9968854 C13.7885671,13.2758437 13.635979,13.7594167 13.7814763,14.1997917 L14.2821945,15.7148333 C14.0760164,15.9073958 13.8752928,16.1072708 13.6808418,16.3114792 L12.1568696,15.8142292 C11.7135594,15.6716354 11.227841,15.822625 10.9455734,16.1908229 C10.1400881,17.2423333 9.46660036,18.3872812 8.94010995,19.6006146 C8.75684055,20.0274479 8.86783853,20.5226667 9.21596856,20.8320937 L10.428901,21.9112292 C10.347357,22.1789479 10.2744038,22.4472083 10.2100414,22.7162812 L8.51357226,23.0526562 C8.00358154,23.1536771 7.63636096,23.5983854 7.63636096,24.1148646 L7.63636096,27.8090312 C7.63636096,28.3255104 8.00358154,28.7702187 8.51370862,28.8712396 L10.2101777,29.2076146 C10.2746766,29.4762812 10.3476298,29.7446771 10.4290374,30.0126667 L9.21569584,31.0918021 C8.86797489,31.4015 8.75711328,31.8964479 8.93983722,32.3232812 C9.466464,33.5364792 10.1398154,34.6815625 10.9453007,35.7330729 C11.2272956,36.1016771 11.7132867,36.2526667 12.1565968,36.1096667 L13.6805691,35.6124167 C13.8755655,35.816625 14.0757437,36.0165 14.2819218,36.2090625 L13.7812036,37.7219375 C13.6358426,38.1621771 13.788158,38.6454792 14.160424,38.9248437 C15.2189956,39.7248854 16.3719292,40.3938437 17.5934524,40.9169583 C18.0232627,41.0981458 18.5215264,40.9880521 18.8335207,40.6430104 L19.9207282,39.4390208 C20.1929051,39.5205417 20.4660364,39.5935312 20.739986,39.6579896 L21.071889,41.2269271 C21.1677509,41.6807083 21.543835,42.0235833 22.0071902,42.0796458 C22.3236844,42.1181042 22.6193154,42.1442396 22.9089465,42.1657708 L22.9089465,54.1666667 L15.1786327,54.1666667 C14.7325954,50.9739479 12.4553641,47.72625 10.4070832,44.8260312 Z M14.18156,25.9618125 C14.1885144,30.9240208 17.9433551,35.0914687 22.9086738,35.6478958 L22.9086738,39.3733437 L22.7281316,38.520625 C22.6370424,38.0887812 22.2913668,37.7548437 21.8540566,37.6764375 C21.207432,37.5595729 20.5717163,37.3893542 19.9535912,37.1675417 C19.8350934,37.1256979 19.7101866,37.1043021 19.5844616,37.1040312 C19.2743763,37.1040312 18.9788817,37.23525 18.7721582,37.4647812 L17.7463132,38.6010625 C17.1778236,38.3189896 16.6292427,37.999 16.1041159,37.6436667 L16.5776982,36.2123125 C16.7163774,35.7927917 16.5850617,35.3318333 16.2457951,35.0465104 C15.7427588,34.6236042 15.2757219,34.1600729 14.8497296,33.6606562 C14.5615985,33.3260417 14.0989251,33.1965833 13.6772964,33.3326771 L12.2365045,33.8035208 C11.8784201,33.2818958 11.5561987,32.7368437 11.2718857,32.1721562 L12.4170466,31.1534167 C12.7473134,30.8588854 12.8654021,30.3952187 12.7158139,29.9801667 C12.4927271,29.3661875 12.3213211,28.734875 12.2033687,28.0928646 C12.1237338,27.6550625 11.7825582,27.3101562 11.3430662,27.2232187 L9.81800305,26.9204271 L9.81800305,25.0034687 L11.3430662,24.7009479 C11.7824218,24.6141458 12.1237338,24.2691042 12.2033687,23.8313021 C12.3213211,23.1888854 12.4927271,22.5571667 12.7156776,21.9427812 C12.8655385,21.5275937 12.747177,21.0637917 12.4163648,20.7695312 L11.2721584,19.7517396 C11.5567441,19.1873229 11.8788292,18.6422708 12.2362317,18.120375 L13.6775691,18.5912187 C14.0991978,18.7271771 14.5617349,18.5978542 14.8500023,18.2632396 C15.2770855,17.7634167 15.7443951,17.2989375 16.2471587,16.8741354 C16.5850617,16.5893542 16.7156956,16.1296146 16.5774254,15.7114479 L16.1043886,14.2800937 C16.6295154,13.9248958 17.1779599,13.6050417 17.7460405,13.3226979 L18.7718855,14.4589792 C19.0686073,14.7866875 19.5352352,14.9040937 19.9533185,14.7562187 C20.5714436,14.5342708 21.2071593,14.3640521 21.8537839,14.2473229 C22.2909578,14.1693229 22.6366333,13.8357917 22.7278589,13.4040833 L22.9086738,12.5513646 L22.9086738,16.2757292 C17.9433551,16.8322917 14.1885144,20.9996042 14.18156,25.9618125 Z M22.9086738,18.4650104 L22.9086738,33.4586146 C18.7394315,32.8658958 15.8433933,29.0288646 16.4402461,24.8885 C16.9203737,21.5583333 19.5551439,18.9418125 22.9086738,18.4650104 Z M34.3630107,61.75 C34.3624652,62.348 33.8742923,62.8327917 33.2721215,62.8333333 L14.7270046,62.8333333 C14.1135157,62.8230417 13.6245247,62.3207812 13.6348881,61.7115417 C13.6351608,61.6989479 13.6355699,61.6863542 13.6361153,61.6737604 C13.6366608,61.0757604 14.1248337,60.5909687 14.7270046,60.5904271 L33.2721215,60.5904271 C33.8856103,60.6007187 34.3746014,61.1029792 34.3642379,61.7122187 C34.3641016,61.7248125 34.3636925,61.7374062 34.3630107,61.75 Z M32.9929902,56.3333333 C33.5425256,56.2829583 34.0291986,56.6847396 34.0797886,57.2304687 C34.0831976,57.2670312 34.0845612,57.3037292 34.0838794,57.3404271 C34.083334,57.9384271 33.595161,58.4232187 32.9929902,58.4237604 L15.0061359,58.4237604 C14.392647,58.4134687 13.9036559,57.9113437 13.9140194,57.3019687 C13.9142921,57.289375 13.9147012,57.2767812 13.9152466,57.2641875 C13.9385644,56.7241458 14.3983742,56.3051667 14.9421825,56.3284583 C14.9635912,56.3294062 14.9848635,56.3310312 15.0061359,56.3331979 L32.9929902,56.3331979 L32.9929902,56.3333333 Z M32.7266768,41.1284792 C33.3291204,41.1284792 33.8175661,41.6135417 33.8175661,42.2118125 C33.8175661,42.8100833 33.3291204,43.2951458 32.7266768,43.2951458 C32.1242333,43.2951458 31.6357876,42.8100833 31.6357876,42.2118125 C31.6363331,41.6138125 32.124506,41.1291562 32.7266768,41.1284792 Z M30.5448984,8.62847917 C31.147342,8.62847917 31.6357876,9.11354167 31.6357876,9.7118125 C31.6357876,10.3100833 31.147342,10.7951458 30.5448984,10.7951458 C29.9424548,10.7951458 29.4540092,10.3100833 29.4540092,9.7118125 C29.4545546,9.1138125 29.9427275,8.62915625 30.5448984,8.62847917 Z M32.7266768,31.3784792 L25.0904522,31.3784792 L25.0904522,20.5451458 L32.7266768,20.5451458 L32.7266768,31.3784792 Z M44.7264583,30.2951458 C44.1240148,30.2951458 43.6355691,29.8100833 43.6355691,29.2118125 C43.6355691,28.6135417 44.1240148,28.1284792 44.7264583,28.1284792 C45.3289019,28.1284792 45.8173476,28.6135417 45.8173476,29.2118125 C45.8168021,29.8099479 45.3286292,30.2946042 44.7264583,30.2951458 Z" id="Shape" fill="#000000" fill-rule="nonzero"></path>
                <path d="M34.0435754,49 C33.649581,49.7032906 33.3009777,50.4309816 33,51.1786113 L35.077514,52 C35.3437151,51.3404908 35.6518156,50.6986893 36,50.0784997 L34.0435754,49 Z" id="Path" fill="#000000" fill-rule="nonzero"></path>
                <path d="M36.2422147,45 C35.8214063,45.6037971 35.4015348,46.2178893 35,46.8383991 L36.7975373,48 C37.1864906,47.4004813 37.5927099,46.8071129 38,46.2221678 L36.2422147,45 Z" id="Path" fill="#000000" fill-rule="nonzero"></path>
                <path d="M39.1865262,42 C38.8250368,42.5737837 38.4221617,43.1675379 38,43.7769736 L39.7600339,45 C40.2021519,44.3633561 40.6227064,43.7423938 41,43.141402 L39.1865262,42 Z" id="Path" fill="#000000" fill-rule="nonzero"></path>
                <path d="M40.9974109,38 C40.6793657,38.6609259 40.3468954,39.3142739 40,39.9601819 L41.9569559,41 C42.3199408,40.3251584 42.6676684,39.6416368 43,38.9494351 L40.9974109,38 Z" id="Path" fill="#000000" fill-rule="nonzero"></path>
                <path d="M42.8513223,34 C42.5846205,34.7038144 42.300416,35.4087674 42,36.1081697 L44.1128114,37 C44.4255655,36.2694278 44.7212472,35.5362938 45,34.8005978 L42.8513223,34 Z" id="Path" fill="#000000" fill-rule="nonzero"></path>
                <path d="M46.9990374,22 L45.0737621,22.0146921 L45.0747247,22.1873531 C45.0747247,22.7116831 45.0498165,23.2690409 45,23.842031 L46.9186571,24 C46.9726852,23.3747062 47,22.7649271 47,22.1873531 L46.9990374,22 Z" id="Path" fill="#000000" fill-rule="nonzero"></path>
                <path d="M47.5186742,17 L45,17.5808562 C45.1890057,18.3786759 45.3327405,19.1863866 45.4307195,20 L48,19.6983249 C47.8902183,18.7909067 47.7295069,17.8900292 47.5186742,17 Z" id="Path" fill="#000000" fill-rule="nonzero"></path>
                <path d="M45.0509055,13 L43,13.9904259 C43.3206901,14.6442485 43.6048767,15.3151912 43.8511336,16 L46,15.2417582 C45.7259375,14.4775739 45.4090974,13.7290949 45.0509055,13 Z" id="Path" fill="#000000" fill-rule="nonzero"></path>
                <path d="M42.6731796,9 L41,10.3252408 C41.4275414,10.8621011 41.8262418,11.4210643 42.1943653,12 L44,10.861968 C43.5911519,10.2183214 43.1482553,9.59677777 42.6731796,9 Z" id="Path" fill="#000000" fill-rule="nonzero"></path>
                <path d="M39.3409769,6 L38,7.62288824 C38.5231059,8.05599193 39.0237197,8.51568739 39.4997369,9 L41,7.52310325 C40.4732112,6.98745009 39.9194581,6.47917855 39.3409769,6 Z" id="Path" fill="#000000" fill-rule="nonzero"></path>
                <path d="M36.027179,3 L35,4.91026279 C35.6169284,5.24528473 36.2207623,5.61205844 36.7944922,6 L38,4.19788321 C37.3686271,3.77181238 36.7052603,3.36894477 36.027179,3 Z" id="Path" fill="#000000" fill-rule="nonzero"></path>
                <path d="M31.6974467,1 L31,3.21732177 C31.7176041,3.44676004 32.4235458,3.71036689 33.0989633,4 L34,1.85988465 C33.2582069,1.54059032 32.4831542,1.25212039 31.6974467,1 Z" id="Path" fill="#000000" fill-rule="nonzero"></path>
                <path d="M27.3264926,0 L27,1.71112908 C27.8230103,1.78270008 28.6466585,1.87960119 29.447977,2 L30,0.315817839 C29.1246744,0.185286985 28.2249455,0.0791161412 27.3264926,0 Z" id="Path" fill="#000000" fill-rule="nonzero"></path>
            </g>
        </g>
    </g>
</svg>