<?xml version="1.0" encoding="UTF-8"?>
<svg width="48px" height="68px" viewBox="0 0 48 68" version="1.1" xmlns="http://www.w3.org/2000/svg" xmlns:xlink="http://www.w3.org/1999/xlink">
    <!-- Generator: Sketch 54.1 (76490) - https://sketchapp.com -->
    <title>icon-code</title>
    <desc>Created with Sketch.</desc>
    <g id="Nengo-Design" stroke="none" stroke-width="1" fill="none" fill-rule="evenodd">
        <g id="Nengo-Home-v2" transform="translate(-461.000000, -736.000000)">
            <g id="Group-10" transform="translate(179.000000, 736.000000)">
                <g id="Group-4" transform="translate(282.000000, 11.000000)">
                    <rect id="Rectangle-7" fill="#EE469B" opacity="0.800000012" x="6" y="6" width="42" height="42" rx="5"></rect>
                    <path d="M11.8962433,14.7763864 L20.2862254,23.1663685 C20.7635063,23.6532924 20.7635063,24.4325752 20.2862254,24.9194991 L11.8962433,33.3094812 C11.6022552,33.7014653 11.1066555,33.8859748 10.6279043,33.781678 C10.1491531,33.6773812 9.77521272,33.3034408 9.67091591,32.8246896 C9.5666191,32.3459384 9.7511286,31.8503387 10.1431127,31.5563506 L17.6565295,24.0429338 L10.1431127,16.529517 C9.76920723,16.0309764 9.81878512,15.3333625 10.2594369,14.8927106 C10.7000888,14.4520588 11.3977027,14.4024809 11.8962433,14.7763864 Z M32.6207513,30.4293381 C33.3123423,30.4293381 33.8729875,30.9899833 33.8729875,31.6815742 C33.8729875,32.3731652 33.3123423,32.9338104 32.6207513,32.9338104 L22.2271914,32.9338104 C21.5356005,32.9338104 20.9749553,32.3731652 20.9749553,31.6815742 C20.9749553,30.9899833 21.5356005,30.4293381 22.2271914,30.4293381 L32.6207513,30.4293381 Z M43.5778175,7.51341682 C43.5778175,3.36387129 40.2139462,4.26325641e-14 36.0644007,4.26325641e-14 L7.51341682,4.26325641e-14 C3.36387129,4.26325641e-14 -1.42108547e-14,3.36387129 -1.42108547e-14,7.51341682 L-1.42108547e-14,36.0644007 C-1.42108547e-14,40.2139462 3.36387129,43.5778175 7.51341682,43.5778175 L36.0644007,43.5778175 C40.2139462,43.5778175 43.5778175,40.2139462 43.5778175,36.0644007 L43.5778175,7.51341682 Z M41.0733453,36.1270125 C41.0733453,38.8933762 38.8307644,41.1359571 36.0644007,41.1359571 L7.51341682,41.1359571 C4.74705313,41.1359571 2.50447227,38.8933762 2.50447227,36.1270125 L2.50447227,7.51341682 C2.50447227,4.74705313 4.74705313,2.50447227 7.51341682,2.50447227 L36.0644007,2.50447227 C38.8307644,2.50447227 41.0733453,4.74705313 41.0733453,7.51341682 L41.0733453,36.1270125 Z" id="Shape" fill="#000000" fill-rule="nonzero"></path>
                </g>
            </g>
        </g>
    </g>
</svg>