<?xml version="1.0" encoding="UTF-8"?>
<svg width="13px" height="13px" viewBox="0 0 13 13" version="1.1" xmlns="http://www.w3.org/2000/svg" xmlns:xlink="http://www.w3.org/1999/xlink">
    <!-- Generator: Sketch 54.1 (76490) - https://sketchapp.com -->
    <title>icon-search</title>
    <desc>Created with Sketch.</desc>
    <g id="Nengo-Design" stroke="none" stroke-width="1" fill="none" fill-rule="evenodd">
        <g id="Nengo-Documentation---API-Reference" transform="translate(-156.000000, -869.000000)" fill="#5CB95D" fill-rule="nonzero">
            <g id="Group-2" transform="translate(43.000000, 761.000000)">
                <path d="M125.41794,119.489852 C125.528101,119.599989 125.528101,119.778128 125.41794,119.888288 L124.888263,120.417965 C124.778103,120.528126 124.599964,120.528126 124.489827,120.417965 L121.644512,117.57265 C121.592945,117.518749 121.562481,117.448437 121.562481,117.373432 L121.562481,117.064076 C120.707014,117.802356 119.593735,118.250002 118.374988,118.250002 C115.682017,118.250002 113.5,116.067985 113.5,113.375013 C113.5,110.682042 115.682017,108.500025 118.374988,108.500025 C121.06796,108.500025 123.249977,110.682042 123.249977,113.375013 C123.249977,114.593761 122.802331,115.707039 122.064051,116.562506 L122.373407,116.562506 C122.448412,116.562506 122.518724,116.590635 122.572625,116.644537 L125.41794,119.489852 Z M118.374988,117.125004 C120.446868,117.125004 122.124979,115.446893 122.124979,113.375013 C122.124979,111.303134 120.446868,109.625022 118.374988,109.625022 C116.303109,109.625022 114.624997,111.303134 114.624997,113.375013 C114.624997,115.446893 116.303109,117.125004 118.374988,117.125004 Z" id=""></path>
            </g>
        </g>
    </g>
</svg>