<?xml version="1.0" encoding="UTF-8"?>
<svg width="54px" height="68px" viewBox="0 0 54 68" version="1.1" xmlns="http://www.w3.org/2000/svg" xmlns:xlink="http://www.w3.org/1999/xlink">
    <!-- Generator: Sketch 54.1 (76490) - https://sketchapp.com -->
    <title>icon-diagram</title>
    <desc>Created with Sketch.</desc>
    <g id="Nengo-Design" stroke="none" stroke-width="1" fill="none" fill-rule="evenodd">
        <g id="Nengo-Home-v2" transform="translate(-673.000000, -736.000000)">
            <g id="Group-10" transform="translate(179.000000, 736.000000)">
                <g id="Group-2" transform="translate(494.000000, 5.000000)">
                    <path d="M21,3 L38,3 L38,9 L21,9 L21,3 Z M21,13 L38,13 L38,19 L21,19 L21,13 Z M21,38 L38,38 L38,44 L21,44 L21,38 Z M28.5,21.136039 L34.863961,27.5 L28.5,33.863961 L22.136039,27.5 L28.5,21.136039 Z M29,60 C25.6862915,60 23,57.3137085 23,54 C23,50.6862915 25.6862915,48 29,48 C32.3137085,48 35,50.6862915 35,54 C35,57.3137085 32.3137085,60 29,60 Z M6,32 C3.790861,32 2,30.209139 2,28 C2,25.790861 3.790861,24 6,24 C8.209139,24 10,25.790861 10,28 C10,30.209139 8.209139,32 6,32 Z M50,19 C47.790861,19 46,17.209139 46,15 C46,12.790861 47.790861,11 50,11 C52.209139,11 54,12.790861 54,15 C54,17.209139 52.209139,19 50,19 Z" id="Combined-Shape" fill="#A967B2" opacity="0.7"></path>
                    <path d="M53,13.359375 C53,11.2094063 51.4797833,9.41034375 49.4666667,8.99620313 L49.4666667,3.5625 C49.4666667,3.06998438 49.0718167,2.671875 48.5833333,2.671875 L35.3333333,2.671875 L35.3333333,0.890625 C35.3333333,0.398109375 34.9384833,1.42108547e-14 34.45,1.42108547e-14 L18.55,1.42108547e-14 C18.0615167,1.42108547e-14 17.6666667,0.398109375 17.6666667,0.890625 L17.6666667,2.671875 L11.4833333,2.671875 C10.99485,2.671875 10.6,3.06998438 10.6,3.5625 L10.6,12.46875 L4.41666667,12.46875 C3.92818333,12.46875 3.53333333,12.8668594 3.53333333,13.359375 L3.53333333,21.4649531 C1.52021667,21.8790938 0,23.6781563 0,25.828125 C0,27.9780938 1.52021667,29.7771562 3.53333333,30.1912969 L3.53333333,38.296875 C3.53333333,38.7893906 3.92818333,39.1875 4.41666667,39.1875 L17.6666667,39.1875 L17.6666667,40.96875 C17.6666667,41.4612656 18.0615167,41.859375 18.55,41.859375 L25.6166667,41.859375 L25.6166667,44.6025 C22.6257,45.037125 20.3166667,47.6315156 20.3166667,50.765625 C20.3166667,54.2025469 23.0912167,57 26.5,57 C29.60845,57 32.1816,54.6719062 32.6126667,51.65625 L42.4,51.65625 C42.8884833,51.65625 43.2833333,51.2581406 43.2833333,50.765625 L43.2833333,26.71875 L48.5833333,26.71875 C49.0718167,26.71875 49.4666667,26.3206406 49.4666667,25.828125 L49.4666667,17.7225469 C51.4797833,17.3084063 53,15.5093438 53,13.359375 Z M19.4333333,1.78125 L33.5666667,1.78125 L33.5666667,5.34375 L19.4333333,5.34375 L19.4333333,1.78125 Z M12.3666667,4.453125 L17.6666667,4.453125 L17.6666667,6.234375 C17.6666667,6.72689063 18.0615167,7.125 18.55,7.125 L25.6166667,7.125 L25.6166667,9.796875 L18.55,9.796875 C18.0615167,9.796875 17.6666667,10.1949844 17.6666667,10.6875 L17.6666667,12.46875 L12.3666667,12.46875 L12.3666667,4.453125 Z M26.5,30.8663906 L21.5029833,25.828125 L26.5,20.7898594 L31.4970167,25.828125 L26.5,30.8663906 Z M19.4333333,15.140625 L19.4333333,11.578125 L33.5666667,11.578125 L33.5666667,15.140625 L19.4333333,15.140625 Z M1.76666667,25.828125 C1.76666667,24.3550313 2.95563333,23.15625 4.41666667,23.15625 C5.8777,23.15625 7.06666667,24.3550313 7.06666667,25.828125 C7.06666667,27.3012188 5.8777,28.5 4.41666667,28.5 C2.95563333,28.5 1.76666667,27.3012188 1.76666667,25.828125 Z M17.6666667,35.625 L17.6666667,37.40625 L5.3,37.40625 L5.3,30.1912969 C7.31311667,29.7771563 8.83333333,27.9789844 8.83333333,25.828125 C8.83333333,23.6772656 7.31311667,21.8790938 5.3,21.4649531 L5.3,14.25 L17.6666667,14.25 L17.6666667,16.03125 C17.6666667,16.5237656 18.0615167,16.921875 18.55,16.921875 L25.6166667,16.921875 L25.6166667,19.1617969 L19.88825,24.9375 L17.6666667,24.9375 L17.6666667,26.71875 L19.88825,26.71875 L25.6166667,32.4944531 L25.6166667,34.734375 L18.55,34.734375 C18.0615167,34.734375 17.6666667,35.1324844 17.6666667,35.625 Z M19.4333333,36.515625 L33.5666667,36.515625 L33.5666667,40.078125 L19.4333333,40.078125 L19.4333333,36.515625 Z M26.5,55.21875 C24.06465,55.21875 22.0833333,53.2210781 22.0833333,50.765625 C22.0833333,48.3101719 24.06465,46.3125 26.5,46.3125 C28.93535,46.3125 30.9166667,48.3101719 30.9166667,50.765625 C30.9166667,53.2210781 28.93535,55.21875 26.5,55.21875 Z M41.5166667,49.875 L32.6126667,49.875 C32.2231167,47.1505781 30.08545,44.9952656 27.3833333,44.6025 L27.3833333,41.859375 L34.45,41.859375 C34.9384833,41.859375 35.3333333,41.4612656 35.3333333,40.96875 L35.3333333,35.625 C35.3333333,35.1324844 34.9384833,34.734375 34.45,34.734375 L27.3833333,34.734375 L27.3833333,32.4944531 L33.11175,26.71875 L41.5166667,26.71875 L41.5166667,49.875 Z M33.11175,24.9375 L27.3833333,19.1617969 L27.3833333,16.921875 L34.45,16.921875 C34.9384833,16.921875 35.3333333,16.5237656 35.3333333,16.03125 L35.3333333,10.6875 C35.3333333,10.1949844 34.9384833,9.796875 34.45,9.796875 L27.3833333,9.796875 L27.3833333,7.125 L34.45,7.125 C34.9384833,7.125 35.3333333,6.72689063 35.3333333,6.234375 L35.3333333,4.453125 L47.7,4.453125 L47.7,8.99620313 C45.6868833,9.41034375 44.1666667,11.2085156 44.1666667,13.359375 C44.1666667,15.5102344 45.6868833,17.3084063 47.7,17.7225469 L47.7,24.9375 L33.11175,24.9375 Z M48.5833333,16.03125 C47.1223,16.03125 45.9333333,14.8324688 45.9333333,13.359375 C45.9333333,11.8862813 47.1223,10.6875 48.5833333,10.6875 C50.0443667,10.6875 51.2333333,11.8862813 51.2333333,13.359375 C51.2333333,14.8324688 50.0443667,16.03125 48.5833333,16.03125 Z M10.6,24.9375 L12.3666667,24.9375 L12.3666667,26.71875 L10.6,26.71875 L10.6,24.9375 Z M14.1333333,24.9375 L15.9,24.9375 L15.9,26.71875 L14.1333333,26.71875 L14.1333333,24.9375 Z" id="Shape" fill="#000000" fill-rule="nonzero"></path>
                </g>
            </g>
        </g>
    </g>
</svg>