<?xml version="1.0" encoding="UTF-8"?>
<svg width="68px" height="68px" viewBox="0 0 68 68" version="1.1" xmlns="http://www.w3.org/2000/svg" xmlns:xlink="http://www.w3.org/1999/xlink">
    <!-- Generator: Sketch 54.1 (76490) - https://sketchapp.com -->
    <title>icon-board</title>
    <desc>Created with Sketch.</desc>
    <g id="Nengo-Design" stroke="none" stroke-width="1" fill="none" fill-rule="evenodd">
        <g id="Nengo-Home-v2" transform="translate(-1096.000000, -736.000000)">
            <g id="Group-10" transform="translate(179.000000, 736.000000)">
                <g id="Group-3" transform="translate(917.000000, 10.000000)">
                    <rect id="Rectangle-7-Copy" fill="#5CB95D" opacity="0.800000012" x="5" y="5" width="63" height="46"></rect>
                    <path d="M41.1956522,12.1451613 L37.1086957,12.1451613 L37.1086957,10.0806452 L35.0652174,10.0806452 L35.0652174,12.1451613 L33.0217391,12.1451613 L33.0217391,10.0806452 L30.9782609,10.0806452 L30.9782609,12.1451613 L28.9347826,12.1451613 L28.9347826,10.0806452 L26.8913043,10.0806452 L26.8913043,12.1451613 L22.8043478,12.1451613 L22.8043478,18.3387097 L20.7608696,18.3387097 L20.7608696,20.4032258 L22.8043478,20.4032258 L22.8043478,22.4677419 L20.7608696,22.4677419 L20.7608696,24.5322581 L22.8043478,24.5322581 L22.8043478,26.5967742 L20.7608696,26.5967742 L20.7608696,28.6612903 L22.8043478,28.6612903 L22.8043478,34.8548387 L26.8913043,34.8548387 L26.8913043,36.9193548 L28.9347826,36.9193548 L28.9347826,34.8548387 L30.9782609,34.8548387 L30.9782609,36.9193548 L33.0217391,36.9193548 L33.0217391,34.8548387 L35.0652174,34.8548387 L35.0652174,36.9193548 L37.1086957,36.9193548 L37.1086957,34.8548387 L41.1956522,34.8548387 L41.1956522,28.6612903 L43.2391304,28.6612903 L43.2391304,26.5967742 L41.1956522,26.5967742 L41.1956522,24.5322581 L43.2391304,24.5322581 L43.2391304,22.4677419 L41.1956522,22.4677419 L41.1956522,20.4032258 L43.2391304,20.4032258 L43.2391304,18.3387097 L41.1956522,18.3387097 L41.1956522,12.1451613 Z M39.1521739,32.7903226 L24.8478261,32.7903226 L24.8478261,14.2096774 L39.1521739,14.2096774 L39.1521739,32.7903226 Z M37.1086957,16.2741935 L26.8913043,16.2741935 L26.8913043,30.7258065 L37.1086957,30.7258065 L37.1086957,16.2741935 Z M35.0652174,28.6612903 L28.9347826,28.6612903 L28.9347826,18.3387097 L35.0652174,18.3387097 L35.0652174,28.6612903 Z M54.4782609,9.0483871 L55.5,9.0483871 L55.5,-8.5 L8.5,-8.5 L8.5,9.0483871 L9.52173913,9.0483871 C11.2116957,9.0483871 12.5869565,10.4378065 12.5869565,12.1451613 C12.5869565,13.8525161 11.2116957,15.2419355 9.52173913,15.2419355 L8.5,15.2419355 L8.5,36.9193548 L12.5869565,36.9193548 L12.5869565,38.983871 L8.5,38.983871 L8.5,45.1774194 L12.5869565,45.1774194 L12.5869565,47.2419355 L8.5,47.2419355 L8.5,55.5 L55.5,55.5 L55.5,34.8548387 L51.4130435,34.8548387 L51.4130435,32.7903226 L55.5,32.7903226 L55.5,26.5967742 L51.4130435,26.5967742 L51.4130435,24.5322581 L55.5,24.5322581 L55.5,15.2419355 L54.4782609,15.2419355 C52.7883043,15.2419355 51.4130435,13.8525161 51.4130435,12.1451613 C51.4130435,10.4378065 52.7883043,9.0483871 54.4782609,9.0483871 Z M14.6304348,-6.43548387 L16.673913,-6.43548387 L16.673913,-2.30645161 L14.6304348,-2.30645161 L14.6304348,-6.43548387 Z M18.7173913,-6.43548387 L20.7608696,-6.43548387 L20.7608696,-2.30645161 L18.7173913,-2.30645161 L18.7173913,-6.43548387 Z M22.8043478,-6.43548387 L24.8478261,-6.43548387 L24.8478261,-2.30645161 L22.8043478,-2.30645161 L22.8043478,-6.43548387 Z M26.8913043,-6.43548387 L28.9347826,-6.43548387 L28.9347826,-2.30645161 L26.8913043,-2.30645161 L26.8913043,-6.43548387 Z M49.3695652,53.4354839 L47.326087,53.4354839 L47.326087,49.3064516 L49.3695652,49.3064516 L49.3695652,53.4354839 Z M45.2826087,53.4354839 L43.2391304,53.4354839 L43.2391304,49.3064516 L45.2826087,49.3064516 L45.2826087,53.4354839 Z M41.1956522,53.4354839 L39.1521739,53.4354839 L39.1521739,49.3064516 L41.1956522,49.3064516 L41.1956522,53.4354839 Z M37.1086957,53.4354839 L35.0652174,53.4354839 L35.0652174,49.3064516 L37.1086957,49.3064516 L37.1086957,53.4354839 Z M53.4565217,17.2021935 L53.4565217,22.4677419 L49.3695652,22.4677419 L49.3695652,28.6612903 L53.4565217,28.6612903 L53.4565217,30.7258065 L49.3695652,30.7258065 L49.3695652,36.9193548 L53.4565217,36.9193548 L53.4565217,53.4354839 L51.4130435,53.4354839 L51.4130435,47.2419355 L33.0217391,47.2419355 L33.0217391,53.4354839 L18.7173913,53.4354839 L18.7173913,49.3064516 L26.8913043,49.3064516 L26.8913043,47.2419355 L24.8478261,47.2419355 L24.8478261,38.983871 L18.7173913,38.983871 L18.7173913,30.7258065 L16.673913,30.7258065 L16.673913,41.0483871 L22.8043478,41.0483871 L22.8043478,47.2419355 L16.673913,47.2419355 L16.673913,53.4354839 L10.5434783,53.4354839 L10.5434783,49.3064516 L14.6304348,49.3064516 L14.6304348,43.1129032 L10.5434783,43.1129032 L10.5434783,41.0483871 L14.6304348,41.0483871 L14.6304348,34.8548387 L10.5434783,34.8548387 L10.5434783,17.2021935 C12.8720217,16.7232258 14.6304348,14.6370323 14.6304348,12.1451613 C14.6304348,9.65329032 12.8720217,7.56709677 10.5434783,7.08812903 L10.5434783,-6.43548387 L12.5869565,-6.43548387 L12.5869565,-0.241935484 L30.9782609,-0.241935484 L30.9782609,-6.43548387 L45.2826087,-6.43548387 L45.2826087,-2.30645161 L37.1086957,-2.30645161 L37.1086957,-0.241935484 L39.1521739,-0.241935484 L39.1521739,8.01612903 L45.2826087,8.01612903 L45.2826087,16.2741935 L47.326087,16.2741935 L47.326087,5.9516129 L41.1956522,5.9516129 L41.1956522,-0.241935484 L47.326087,-0.241935484 L47.326087,-6.43548387 L53.4565217,-6.43548387 L53.4565217,7.08812903 C51.1279783,7.56709677 49.3695652,9.65329032 49.3695652,12.1451613 C49.3695652,14.6370323 51.1279783,16.7232258 53.4565217,17.2021935 Z" id="Shape" fill="#000000" fill-rule="nonzero" transform="translate(32.000000, 23.500000) rotate(-90.000000) translate(-32.000000, -23.500000) "></path>
                </g>
            </g>
        </g>
    </g>
</svg>