<?xml version="1.0" encoding="UTF-8"?>
<svg width="1132px" height="8px" viewBox="0 0 1132 8" version="1.1" xmlns="http://www.w3.org/2000/svg" xmlns:xlink="http://www.w3.org/1999/xlink">
    <!-- Generator: Sketch 54.1 (76490) - https://sketchapp.com -->
    <title>stripe</title>
    <desc>Created with Sketch.</desc>
    <g id="Wireframes-(v2)" stroke="none" stroke-width="1" fill="none" fill-rule="evenodd">
        <g id="Welcome" transform="translate(0.000000, -71.000000)">
            <g id="Group" transform="translate(0.000000, 71.000000)">
                <rect id="Rectangle" fill="#21988D" x="0" y="0" width="1132" height="8"></rect>
                <rect id="Rectangle-Copy-5" fill="#177236" opacity="0.5" x="20" y="0" width="141" height="8"></rect>
                <rect id="Rectangle-Copy-6" fill="#B4D4A2" x="160" y="0" width="90" height="8"></rect>
                <rect id="Rectangle-Copy-7" fill="#94C946" opacity="0.5" x="250" y="0" width="110" height="8"></rect>
                <rect id="Rectangle-Copy-8" fill="#177236" opacity="0.5" x="360" y="0" width="40" height="8"></rect>
                <rect id="Rectangle-Copy-9" fill="#249F52" opacity="0.5" x="400" y="0" width="60" height="8"></rect>
                <rect id="Rectangle-Copy-10" fill="#B4D4A2" x="570" y="0" width="40" height="8"></rect>
                <rect id="Rectangle-Copy-11" fill="#94C946" opacity="0.5" x="610" y="0" width="20" height="8"></rect>
                <rect id="Rectangle-Copy-12" fill="#249F52" opacity="0.5" x="700" y="0" width="80" height="8"></rect>
                <rect id="Rectangle-Copy-13" fill="#94C946" opacity="0.5" x="780" y="0" width="40" height="8"></rect>
                <rect id="Rectangle-Copy-14" fill="#177236" opacity="0.5" x="819" y="0" width="20" height="8"></rect>
                <rect id="Rectangle-Copy-15" fill="#249F52" opacity="0.5" x="929" y="0" width="40" height="8"></rect>
                <rect id="Rectangle-Copy-16" fill="#B4D4A2" x="969" y="0" width="40" height="8"></rect>
                <rect id="Rectangle-Copy-17" fill="#177236" opacity="0.5" x="1049" y="0" width="10" height="8"></rect>
                <rect id="Rectangle-Copy-18" fill="#249F52" opacity="0.5" x="1059" y="0" width="50" height="8"></rect>
            </g>
        </g>
    </g>
</svg>